<?xml version="1.0" standalone="no"?>
<!DOCTYPE svg PUBLIC "-//W3C//DTD SVG 20010904//EN"
 "http://www.w3.org/TR/2001/REC-SVG-20010904/DTD/svg10.dtd">
<svg version="1.0" xmlns="http://www.w3.org/2000/svg"
 width="2048.000000pt" height="2048.000000pt" viewBox="0 0 2048.000000 2048.000000"
 preserveAspectRatio="xMidYMid meet">
<metadata>
Created by potrace 1.16, written by Peter Selinger 2001-2019
</metadata>
<g transform="translate(0.000000,2048.000000) scale(0.100000,-0.100000)"
fill="#000000" stroke="none">
<path d="M9930 17559 c-557 -25 -1147 -145 -1690 -344 -543 -198 -1147 -544
-1620 -929 -124 -101 -409 -367 -502 -469 -69 -76 -109 -122 -274 -318 -152
-181 -302 -396 -487 -699 -289 -472 -545 -1141 -667 -1740 -148 -727 -144
-1565 10 -2309 27 -130 112 -448 154 -581 111 -343 287 -751 452 -1047 73
-130 434 -678 597 -906 40 -56 88 -124 107 -152 67 -100 217 -303 325 -440 61
-77 133 -169 160 -205 73 -96 301 -378 416 -515 182 -215 599 -704 647 -757
92 -102 149 -166 288 -324 231 -261 330 -371 514 -575 97 -107 209 -232 250
-279 41 -47 109 -121 151 -165 112 -118 287 -311 431 -477 139 -159 331 -371
614 -678 28 -30 83 -95 124 -143 110 -133 188 -178 306 -178 123 0 176 34 339
219 61 69 170 191 244 271 73 80 197 216 275 301 77 85 177 193 221 240 73 76
229 247 326 355 20 22 150 166 289 320 140 154 292 323 339 375 47 52 117 129
156 170 38 41 124 138 190 214 66 77 164 189 217 250 836 955 1398 1668 1922
2436 368 541 414 615 546 879 376 753 569 1509 600 2352 27 735 -84 1443 -340
2158 -183 511 -486 1074 -787 1461 -273 352 -385 476 -689 760 -87 83 -124
114 -324 271 -453 359 -1008 665 -1582 873 -163 59 -500 155 -704 200 -510
113 -978 151 -1544 125z m865 -373 c798 -90 1534 -334 2184 -726 394 -237 684
-463 1002 -780 356 -356 623 -695 831 -1055 165 -285 311 -588 395 -815 163
-442 271 -899 320 -1349 21 -198 25 -866 5 -1036 -73 -632 -198 -1118 -423
-1637 -135 -312 -326 -647 -526 -923 -40 -55 -127 -179 -194 -275 -127 -182
-415 -579 -516 -711 -134 -177 -344 -441 -423 -534 -47 -55 -155 -183 -240
-285 -266 -319 -572 -674 -870 -1009 -91 -101 -219 -246 -284 -320 -66 -75
-179 -199 -251 -276 -72 -77 -169 -183 -215 -235 -223 -252 -427 -478 -550
-610 -74 -80 -175 -190 -225 -245 -49 -55 -94 -105 -100 -111 -5 -6 -113 -126
-239 -267 -127 -141 -234 -257 -238 -257 -5 0 -19 10 -31 23 -70 71 -783 858
-972 1071 -92 105 -270 302 -495 551 -206 227 -317 352 -460 515 -74 84 -178
201 -230 260 -142 159 -349 396 -416 475 -32 39 -117 138 -189 220 -71 83
-167 196 -212 250 -45 55 -128 156 -185 225 -326 394 -687 864 -864 1125 -48
72 -114 164 -145 206 -31 42 -81 112 -109 155 -29 44 -74 108 -100 144 -145
200 -375 625 -495 914 -145 352 -270 799 -336 1203 -89 552 -89 1157 2 1703
43 257 117 566 191 800 96 300 269 693 426 970 89 157 312 489 433 646 282
365 677 746 1034 1000 303 216 470 317 750 457 408 204 682 304 1141 417 302
75 557 116 899 144 124 10 786 -3 920 -18z"/>
<path d="M10045 17043 c-243 -12 -476 -35 -690 -69 -323 -51 -802 -191 -1115
-324 -743 -317 -1315 -724 -1849 -1315 -235 -260 -470 -585 -603 -833 -22 -43
-56 -102 -74 -132 -57 -95 -191 -378 -243 -509 -166 -425 -250 -729 -310
-1123 -93 -607 -80 -1300 36 -1843 129 -608 323 -1115 610 -1595 148 -247 266
-418 416 -603 160 -198 478 -526 657 -678 41 -35 77 -66 80 -69 22 -24 206
-166 320 -245 309 -217 791 -469 1130 -590 635 -228 1180 -325 1820 -325 583
0 951 53 1511 215 297 87 534 183 868 353 223 113 324 174 591 353 461 311
930 776 1246 1236 48 70 102 148 119 173 100 144 278 468 364 664 128 290 251
649 315 916 110 460 142 768 133 1313 -6 420 -24 599 -92 942 -120 604 -400
1279 -746 1797 -208 312 -363 502 -624 764 -266 267 -506 469 -760 639 -622
416 -1284 684 -2015 814 -351 63 -763 91 -1095 74z m616 -378 c235 -19 292
-26 524 -72 578 -112 1203 -365 1710 -692 106 -68 398 -288 500 -376 725 -629
1222 -1433 1480 -2394 150 -561 193 -1253 115 -1857 -47 -359 -163 -797 -309
-1164 -62 -154 -228 -486 -318 -635 -121 -199 -355 -520 -497 -680 -168 -189
-393 -406 -576 -555 -30 -25 -57 -48 -60 -51 -11 -13 -210 -159 -297 -217
-498 -334 -1013 -562 -1573 -696 -251 -60 -348 -77 -595 -105 -550 -63 -1135
-22 -1700 121 -546 137 -1009 343 -1525 676 -145 95 -405 303 -564 452 -291
273 -444 448 -662 760 -181 258 -279 424 -381 645 -141 307 -194 445 -283 740
-119 398 -172 743 -195 1275 -11 243 22 640 80 969 67 379 225 850 417 1236
257 520 545 912 974 1324 214 205 401 354 690 549 119 80 498 282 679 362 460
204 931 326 1480 384 181 19 647 20 886 1z"/>
<path d="M9095 14903 c-208 -25 -446 -92 -694 -194 -267 -111 -291 -126 -572
-365 -407 -346 -427 -373 -406 -532 10 -75 -3 -109 -64 -168 l-40 -39 -112 -5
c-138 -6 -129 -1 -387 -243 -226 -211 -244 -239 -244 -382 -1 -155 -2 -154
563 -726 297 -301 315 -314 436 -313 67 0 88 4 130 27 28 14 142 111 255 214
231 212 250 238 250 339 0 56 3 65 31 92 57 56 79 59 151 21 52 -28 138 -108
508 -474 l446 -440 -576 -570 c-633 -627 -866 -856 -1042 -1024 -132 -127
-185 -202 -222 -313 -126 -375 106 -788 518 -922 193 -63 404 -36 575 73 26
17 211 201 411 408 201 208 430 446 510 528 80 83 287 300 460 483 l315 333
34 -38 c19 -21 128 -135 241 -253 114 -118 249 -260 301 -316 52 -55 211 -224
353 -375 399 -421 527 -558 594 -632 83 -93 144 -141 227 -183 176 -87 392
-83 580 12 207 105 351 273 416 484 19 61 23 98 23 195 0 135 -16 210 -66 309
-35 69 -61 96 -493 506 -159 151 -337 320 -395 376 -58 56 -144 137 -191 180
-178 164 -814 776 -814 784 0 5 119 131 265 282 324 333 451 466 553 579 l78
87 92 23 c128 31 636 208 715 248 70 36 85 65 187 366 37 110 91 270 120 355
29 85 94 281 143 435 50 154 118 364 151 468 65 200 75 267 42 267 -34 0
-1475 -488 -1716 -581 -134 -52 -144 -63 -194 -217 -16 -48 -81 -235 -144
-417 l-116 -330 -338 -335 c-185 -184 -385 -383 -443 -443 -58 -59 -109 -107
-115 -107 -10 1 -735 725 -865 866 -125 134 -115 113 -83 175 38 72 39 171 4
247 -13 28 -21 57 -18 66 10 26 99 84 178 115 177 70 371 109 664 131 159 12
211 28 267 78 83 75 104 180 55 265 -47 79 -257 231 -452 327 -200 99 -425
165 -640 190 -84 9 -332 12 -400 3z m460 -364 c93 -14 211 -49 315 -92 52 -21
119 -49 147 -60 29 -12 53 -25 53 -28 0 -3 -46 -9 -102 -12 -310 -20 -595
-114 -763 -251 -64 -53 -88 -81 -120 -137 -40 -73 -41 -118 -6 -238 20 -69 27
-110 21 -120 -4 -9 -40 -43 -78 -76 -38 -33 -160 -142 -270 -242 -110 -100
-231 -205 -268 -234 l-68 -51 -101 6 c-114 8 -154 -2 -232 -55 -77 -53 -191
-168 -213 -215 l-22 -44 21 -43 c12 -24 21 -48 21 -54 0 -10 -291 -285 -308
-291 -5 -1 -92 84 -193 189 -101 106 -244 253 -316 327 -73 74 -133 138 -133
143 0 9 286 292 301 297 4 2 29 -13 55 -32 26 -20 52 -36 59 -36 31 0 248 184
320 270 75 89 109 204 87 297 l-10 43 57 54 c31 30 113 103 182 163 69 59 161
140 205 178 100 89 125 104 262 159 259 104 528 178 712 196 95 9 294 3 385
-11z m3345 -396 c-46 -120 -131 -359 -191 -531 -59 -171 -112 -320 -117 -329
-5 -9 -57 -33 -116 -53 -326 -115 -499 -171 -566 -182 l-75 -12 -75 -80 c-138
-149 -943 -966 -951 -966 -5 0 -49 40 -98 88 l-90 88 488 490 c269 269 498
505 510 524 11 19 21 46 20 60 0 14 51 179 113 367 l113 342 116 46 c64 25
167 63 230 84 96 32 285 103 634 236 33 13 76 30 95 38 19 9 36 14 38 12 2 -2
-33 -101 -78 -222z m-3725 -952 c72 -104 378 -432 682 -731 340 -336 928 -908
1008 -980 39 -34 81 -74 95 -89 14 -14 68 -66 120 -116 52 -49 163 -155 246
-235 82 -80 175 -167 205 -195 30 -27 110 -104 179 -170 69 -66 204 -195 300
-285 96 -91 227 -215 290 -275 63 -61 149 -140 190 -175 198 -172 220 -205
220 -327 0 -162 -97 -301 -263 -379 -37 -17 -70 -24 -112 -24 -117 0 -174 31
-282 152 -37 42 -169 185 -293 318 -124 132 -254 273 -289 313 -35 40 -125
135 -200 212 -75 77 -211 219 -301 315 -91 96 -210 222 -266 280 -55 58 -123
130 -150 160 -46 51 -111 120 -390 410 -61 63 -148 156 -194 205 -171 183
-781 807 -1014 1036 l-239 237 34 29 c19 17 68 58 109 91 41 33 122 104 180
156 58 53 107 96 110 96 3 0 14 -13 25 -29z m654 -1973 l223 -227 -22 -28
c-12 -15 -97 -106 -188 -202 -92 -96 -210 -220 -262 -275 -52 -55 -212 -222
-355 -371 -143 -148 -383 -401 -533 -562 -291 -312 -306 -324 -420 -345 -52
-10 -71 -9 -127 7 -218 59 -357 275 -301 467 18 62 26 70 1198 1222 290 285
529 525 532 533 3 8 12 13 18 11 7 -2 114 -105 237 -230z"/>
</g>
</svg>
